<svg xmlns="http://www.w3.org/2000/svg" width="320" height="480" viewBox="0 0 320 480" role="img" aria-label="Book cover placeholder">
  <defs>
    <linearGradient id="bg" x1="0" y1="0" x2="1" y2="1">
      <stop offset="0" stop-color="#111827"/>
      <stop offset="1" stop-color="#1f2937"/>
    </linearGradient>
  </defs>
  <rect width="320" height="480" fill="url(#bg)"/>
  <rect x="28" y="28" width="264" height="424" rx="16" fill="#0b1220" stroke="#374151"/>
  <rect x="52" y="96" width="216" height="22" rx="8" fill="#374151"/>
  <rect x="52" y="132" width="168" height="16" rx="8" fill="#2b3443"/>
  <rect x="52" y="168" width="196" height="16" rx="8" fill="#2b3443"/>
  <g opacity="0.9">
    <path d="M98 292c0-26 22-48 50-48h22c28 0 50 22 50 48v44c0 10-8 18-18 18h-86c-10 0-18-8-18-18v-44z" fill="#4f46e5"/>
    <path d="M118 292c0-15 12-28 28-28h26c16 0 28 13 28 28v42h-82v-42z" fill="#1d4ed8"/>
    <rect x="112" y="334" width="96" height="10" rx="5" fill="#93c5fd" opacity="0.9"/>
  </g>
  <text x="160" y="420" text-anchor="middle" font-family="ui-sans-serif, system-ui, -apple-system, Segoe UI, Roboto" font-size="14" fill="#9ca3af">No cover image</text>
</svg>
